<svg width="833" height="833" viewBox="0 0 833 833" fill="none" xmlns="http://www.w3.org/2000/svg">
    <path
        d="M572.994 461.484C568.009 458.706 563.32 456.095 558.611 453.474C625.75 446.302 715.193 432.539 833 418.293C708.179 402.116 615.298 386.786 546.996 379.457C554.621 374.777 562.492 369.94 570.896 364.758C594.067 350.472 620.322 334.286 650.202 316.404L667.432 306.099L648.192 311.833C614.815 321.794 585.151 330.217 558.956 337.645C540.454 342.896 523.884 347.615 508.761 352.088C532.041 322.207 560.364 284.189 596.806 237.727C546.345 276.613 505.707 306.208 474.674 330.197C479.108 312.739 483.797 293.006 489.078 270.751C495.363 244.259 502.476 214.25 510.978 180.477L515.864 161L506.318 178.665C489.757 209.294 474.724 236.249 461.463 260.012C458.685 264.997 456.065 269.696 453.444 274.406C446.272 207.265 432.509 117.809 418.263 0C402.087 124.824 386.758 217.698 379.428 286.001C374.759 278.376 369.921 270.514 364.749 262.12C350.464 238.948 334.268 212.684 316.387 182.793L306.082 165.552L311.816 184.802C321.776 218.171 330.189 247.845 337.627 274.031C342.878 292.533 347.607 309.114 352.07 324.237C322.19 300.957 284.162 272.622 237.712 236.19C276.596 286.652 306.191 327.291 330.18 358.324C312.722 353.891 292.98 349.201 270.725 343.921C244.243 337.635 214.235 330.522 180.453 322.02L160.977 317.133L178.651 326.68C209.289 343.241 236.234 358.265 260.006 371.536C264.991 374.314 269.68 376.925 274.389 379.545C207.25 386.718 117.807 400.481 0 414.727C124.821 430.904 217.703 446.233 286.005 453.563C278.379 458.243 270.508 463.08 262.104 468.262C238.933 482.547 212.678 498.734 182.798 516.615L165.568 526.92L184.808 521.187C218.185 511.226 247.849 502.803 274.044 495.375C292.546 490.124 309.107 485.395 324.229 480.932C300.96 510.813 272.626 548.831 236.194 595.283C286.655 556.397 327.293 526.802 358.326 502.813C353.893 520.27 349.203 540.004 343.923 562.259C337.637 588.741 330.524 618.76 322.022 652.532L317.136 672.01L326.682 654.345C343.243 623.716 358.277 596.761 371.537 572.998C374.315 568.013 376.936 563.323 379.556 558.604C386.728 625.745 400.491 715.191 414.737 833C430.913 708.186 446.242 615.302 453.572 546.999C458.242 554.624 463.079 562.476 468.251 570.88C482.536 594.042 498.732 620.317 516.613 650.208L526.918 667.448L521.184 648.198C511.224 614.829 502.811 585.155 495.373 558.969C490.122 540.467 485.393 523.886 480.93 508.754C510.81 532.034 548.838 560.368 595.288 596.8C556.404 546.338 526.81 505.699 502.821 474.666C520.278 479.099 540.011 483.789 562.276 489.069C588.757 495.355 618.765 502.468 652.547 510.97L672.033 515.857L654.359 506.31C623.701 489.779 596.766 474.755 572.994 461.484ZM560.325 342.492C581.467 336.502 604.884 329.852 630.696 322.266C607.672 336.167 586.954 348.945 568.256 360.482C557.734 366.964 548.03 372.935 538.75 378.609C520.918 376.816 504.84 375.644 490.388 375.191C494.555 370.078 498.89 364.698 503.441 358.906C520.189 353.901 539.036 348.532 560.325 342.492ZM465.857 262.475C476.566 243.283 488.427 222.023 501.323 198.408C494.87 224.525 489.245 248.219 484.181 269.598C478.241 294.661 473.059 316.385 468.182 335.281C464.823 337.911 461.562 340.492 458.449 342.985C458.055 325.498 456.616 305.636 454.341 283.154C458.025 276.534 461.847 269.667 465.857 262.475ZM342.474 272.672C336.475 251.53 329.825 228.121 322.249 202.309C336.15 225.333 348.937 246.062 360.473 264.78C366.956 275.292 372.916 284.987 378.591 294.267C376.798 312.099 375.625 328.178 375.172 342.63C370.059 338.463 364.68 334.138 358.897 329.586C353.883 312.828 348.523 293.972 342.474 272.672ZM262.449 367.162C243.258 356.453 222.008 344.591 198.383 331.705C224.5 338.148 248.194 343.773 269.582 348.837C294.645 354.787 316.368 359.96 335.263 364.846C337.893 368.206 340.474 371.457 342.967 374.57C325.48 374.964 305.619 376.403 283.128 378.679C276.508 374.994 269.641 371.171 262.449 367.162ZM272.665 490.547C251.524 496.537 228.106 503.187 202.295 510.773C225.318 496.872 246.036 484.094 264.735 472.557C275.256 466.075 284.96 460.105 294.251 454.43C312.082 456.223 328.16 457.405 342.612 457.848C338.435 462.962 334.11 468.351 329.559 474.134C312.801 479.148 293.965 484.508 272.665 490.547ZM367.133 570.564C356.424 589.756 344.563 611.026 331.667 634.631C338.12 608.514 343.745 584.82 348.809 563.442C354.76 538.378 359.932 516.655 364.808 497.759C368.168 495.128 371.429 492.547 374.542 490.045C374.936 507.532 376.374 527.393 378.65 549.875C374.975 556.506 371.143 563.372 367.133 570.564ZM490.516 560.368C496.516 581.51 503.165 604.928 510.741 630.73C496.841 607.706 484.053 586.978 472.517 568.259C466.035 557.747 460.074 548.053 454.399 538.772C456.192 520.94 457.365 504.862 457.818 490.409C462.921 494.577 468.31 498.901 474.093 503.453C479.107 520.211 484.477 539.068 490.516 560.368ZM563.418 484.203C538.356 478.252 516.633 473.08 497.737 468.193C495.107 464.834 492.526 461.582 490.033 458.469C507.52 458.075 527.381 456.637 549.872 454.361C556.493 458.036 563.359 461.868 570.551 465.878C589.742 476.587 610.992 488.449 634.617 501.335C608.49 494.892 584.806 489.266 563.418 484.203Z"
        fill="black" />
</svg>