<svg width="85" height="85" viewBox="0 0 85 85" fill="none" xmlns="http://www.w3.org/2000/svg">
<path d="M58.162 46.842C57.656 46.56 57.18 46.295 56.702 46.029C63.517 45.301 72.596 43.904 84.554 42.458C71.884 40.816 62.456 39.26 55.523 38.516C56.297 38.041 57.096 37.55 57.949 37.024C60.301 35.574 62.966 33.931 65.999 32.116L67.748 31.07L65.795 31.652C62.407 32.663 59.396 33.518 56.737 34.272C54.859 34.805 53.177 35.284 51.642 35.738C54.005 32.705 56.88 28.846 60.579 24.13C55.457 28.077 51.332 31.081 48.182 33.516C48.632 31.744 49.108 29.741 49.644 27.482C50.282 24.793 51.004 21.747 51.867 18.319L52.363 16.342L51.394 18.135C49.713 21.244 48.187 23.98 46.841 26.392C46.559 26.898 46.293 27.375 46.027 27.853C45.299 21.038 43.902 11.958 42.456 0C40.814 12.67 39.258 22.097 38.514 29.03C38.04 28.256 37.549 27.458 37.024 26.606C35.574 24.254 33.93 21.588 32.115 18.554L31.069 16.804L31.651 18.758C32.662 22.145 33.516 25.157 34.271 27.815C34.804 29.693 35.284 31.376 35.737 32.911C32.704 30.548 28.844 27.672 24.129 23.974C28.076 29.096 31.08 33.221 33.515 36.371C31.743 35.921 29.739 35.445 27.48 34.909C24.792 34.271 21.746 33.549 18.317 32.686L16.34 32.19L18.134 33.159C21.244 34.84 23.979 36.365 26.392 37.712C26.898 37.994 27.374 38.259 27.852 38.525C21.037 39.253 11.958 40.65 0 42.096C12.67 43.738 22.098 45.294 29.031 46.038C28.257 46.513 27.458 47.004 26.605 47.53C24.253 48.98 21.588 50.623 18.555 52.438L16.806 53.484L18.759 52.902C22.147 51.891 25.158 51.036 27.817 50.282C29.695 49.749 31.376 49.269 32.911 48.816C30.549 51.849 27.673 55.708 23.975 60.423C29.097 56.476 33.222 53.472 36.372 51.037C35.922 52.809 35.446 54.812 34.91 57.071C34.272 59.759 33.55 62.806 32.687 66.234L32.191 68.211L33.16 66.418C34.841 63.309 36.367 60.573 37.713 58.161C37.995 57.655 38.261 57.179 38.527 56.7C39.255 63.515 40.652 72.594 42.098 84.552C43.74 71.883 45.296 62.455 46.04 55.522C46.514 56.296 47.005 57.093 47.53 57.946C48.98 60.297 50.624 62.964 52.439 65.998L53.485 67.748L52.903 65.794C51.892 62.407 51.038 59.395 50.283 56.737C49.75 54.859 49.27 53.176 48.817 51.64C51.85 54.003 55.71 56.879 60.425 60.577C56.478 55.455 53.474 51.33 51.039 48.18C52.811 48.63 54.814 49.106 57.074 49.642C59.762 50.28 62.808 51.002 66.237 51.865L68.215 52.361L66.421 51.392C63.309 49.714 60.575 48.189 58.162 46.842ZM56.876 34.764C59.022 34.156 61.399 33.481 64.019 32.711C61.682 34.122 59.579 35.419 57.681 36.59C56.613 37.248 55.628 37.854 54.686 38.43C52.876 38.248 51.244 38.129 49.777 38.083C50.2 37.564 50.64 37.018 51.102 36.43C52.802 35.922 54.715 35.377 56.876 34.764ZM47.287 26.642C48.374 24.694 49.578 22.536 50.887 20.139C50.232 22.79 49.661 25.195 49.147 27.365C48.544 29.909 48.018 32.114 47.523 34.032C47.182 34.299 46.851 34.561 46.535 34.814C46.495 33.039 46.349 31.023 46.118 28.741C46.492 28.069 46.88 27.372 47.287 26.642ZM34.763 27.677C34.154 25.531 33.479 23.155 32.71 20.535C34.121 22.872 35.419 24.976 36.59 26.876C37.248 27.943 37.853 28.927 38.429 29.869C38.247 31.679 38.128 33.311 38.082 34.778C37.563 34.355 37.017 33.916 36.43 33.454C35.921 31.753 35.377 29.839 34.763 27.677ZM26.64 37.268C24.692 36.181 22.535 34.977 20.137 33.669C22.788 34.323 25.193 34.894 27.364 35.408C29.908 36.012 32.113 36.537 34.031 37.033C34.298 37.374 34.56 37.704 34.813 38.02C33.038 38.06 31.022 38.206 28.739 38.437C28.067 38.063 27.37 37.675 26.64 37.268ZM27.677 49.792C25.531 50.4 23.154 51.075 20.534 51.845C22.871 50.434 24.974 49.137 26.872 47.966C27.94 47.308 28.925 46.702 29.868 46.126C31.678 46.308 33.31 46.428 34.777 46.473C34.353 46.992 33.914 47.539 33.452 48.126C31.751 48.635 29.839 49.179 27.677 49.792ZM37.266 57.914C36.179 59.862 34.975 62.021 33.666 64.417C34.321 61.766 34.892 59.361 35.406 57.191C36.01 54.647 36.535 52.442 37.03 50.524C37.371 50.257 37.702 49.995 38.018 49.741C38.058 51.516 38.204 53.532 38.435 55.814C38.062 56.487 37.673 57.184 37.266 57.914ZM49.79 56.879C50.399 59.025 51.074 61.402 51.843 64.021C50.432 61.684 49.134 59.58 47.963 57.68C47.305 56.613 46.7 55.629 46.124 54.687C46.306 52.877 46.425 51.245 46.471 49.778C46.989 50.201 47.536 50.64 48.123 51.102C48.632 52.803 49.177 54.717 49.79 56.879ZM57.19 49.148C54.646 48.544 52.441 48.019 50.523 47.523C50.256 47.182 49.994 46.852 49.741 46.536C51.516 46.496 53.532 46.35 55.815 46.119C56.487 46.492 57.184 46.881 57.914 47.288C59.862 48.375 62.019 49.579 64.417 50.887C61.765 50.233 59.361 49.662 57.19 49.148Z" fill="black"/>
</svg>
